{
    "asset" : {
        "generator" : "Khronos glTF Blender I/O v3.2.43",
        "version" : "2.0"
    },
    "scene" : 0,
    "scenes" : [
        {
            "extras" : {
                "s_output" : "exporting...",
                "b_export" : 1,
                "export_path" : "E:\\Art101\\AFrame\\",
                "b_interactive" : 0,
                "b_renderer" : 1,
                "b_settings" : 1,
                "b_player" : 1,
                "b_bake_lightmap" : 1,
                "b_use_lightmapper" : 0,
                "b_show_env_sky" : 0,
                "f_raycast_length" : 1.0,
                "b_cast_shadows" : 0,
                "s_cubemap_ext" : "jpg",
                "b_colorManagement" : 0,
                "b_physicallyCorrectLights" : 0,
                "b_aa" : 0,
                "f_player_height" : 0.10000000149011612,
                "b_raycast" : 1,
                "b_camera_cube" : 1
            },
            "name" : "Scene",
            "nodes" : [
                0
            ]
        }
    ],
    "nodes" : [
        {
            "extras" : {
                "nomad" : {
                    "matrix" : [
                        1.139305830001831,
                        3.3953952538468e-08,
                        2.12212292183267e-09,
                        0.0,
                        3.3559657275361587e-09,
                        1.0266982316970825,
                        -2.2948491107399605e-08,
                        0.0,
                        8.697998765683224e-09,
                        -9.53328860298086e-10,
                        1.0268263816833496,
                        0.0,
                        -1.9686553478240967,
                        -3.772913932800293,
                        2.7265148162841797,
                        1.0
                    ],
                    "node_collapse" : 1,
                    "pivot_delta" : [
                        1.0,
                        0.0,
                        0.0,
                        0.0,
                        0.0,
                        1.0,
                        0.0,
                        0.0,
                        0.0,
                        0.0,
                        1.0,
                        0.0,
                        0.0,
                        0.0,
                        0.0,
                        1.0
                    ],
                    "visible" : 1
                }
            },
            "mesh" : 0,
            "name" : "bottom",
            "rotation" : [
                0,
                -0.7071068286895752,
                0,
                0.7071067094802856
            ],
            "scale" : [
                0.4765525460243225,
                0.4294506013393402,
                0.42950427532196045
            ]
        }
    ],
    "materials" : [
        {
            "doubleSided" : true,
            "name" : "Material_55",
            "pbrMetallicRoughness" : {
                "baseColorFactor" : [
                    0.9999998807907104,
                    0.5116680860519409,
                    0.9193532466888428,
                    1
                ],
                "metallicFactor" : 0,
                "roughnessFactor" : 0.6499999761581421
            }
        }
    ],
    "meshes" : [
        {
            "extras" : {
                "nomad" : {
                    "absorption_albedo" : 0,
                    "absorption_color" : [
                        0.3799999952316284,
                        0.16300000250339508,
                        0.08399999886751175
                    ],
                    "absorption_enable" : 0,
                    "absorption_factor" : 0.5,
                    "active_layer" : -1,
                    "always_unlit" : 0,
                    "cast_shadow" : -1,
                    "config_cylinder" : {
                        "arc_x" : 6.2831854820251465,
                        "constant_density" : 1,
                        "height" : 1.4734121561050415,
                        "hole" : 0,
                        "hole_radius_end" : 0.800000011920929,
                        "hole_radius_start" : 0.800000011920929,
                        "radius_end" : 4.462414264678955,
                        "radius_start" : 4.462414264678955,
                        "regular" : 1,
                        "subdiv_x" : 126,
                        "subdiv_y" : 6,
                        "subdiv_z" : 6
                    },
                    "config_primitive_post" : {
                        "max_faces" : 500000,
                        "subdivision_count" : 0,
                        "subdivision_keep_triangles" : 0,
                        "subdivision_linear" : 0
                    },
                    "count_face" : 4914,
                    "count_uv" : 0,
                    "count_vertex" : 4916,
                    "dynTopo_local_edge_length" : -1.0,
                    "flip_culling" : 0,
                    "keep_order" : 0,
                    "material_type" : "opaque",
                    "mesh_type" : "cylinder",
                    "opacity" : 1.0,
                    "reflectance" : 0.5,
                    "refraction_interior_roughness" : 0.0,
                    "refraction_ior" : 1.3300000429153442,
                    "refraction_surface_glossiness" : 0.0,
                    "smooth_shading" : -1,
                    "subsurface_color" : [
                        1.0,
                        0.20000000298023224,
                        0.10000000149011612
                    ],
                    "subsurface_depth" : -1.0,
                    "symmetry_frame" : [
                        1.0,
                        0.0,
                        0.0,
                        0.0,
                        0.0,
                        1.0,
                        0.0,
                        0.0,
                        0.0,
                        0.0,
                        1.0,
                        0.0,
                        0.0,
                        0.0,
                        0.0,
                        1.0
                    ],
                    "symmetry_local" : 1,
                    "symmetry_radial_x" : 1,
                    "symmetry_radial_y" : 1,
                    "symmetry_radial_z" : 1,
                    "symmetry_sculpt" : 1,
                    "symmetry_transform" : 0,
                    "symmetry_x" : 1,
                    "symmetry_y" : 0,
                    "symmetry_z" : 0,
                    "translucency" : 1,
                    "translucency_factor" : 1.0,
                    "two_sided" : -1,
                    "version" : 1,
                    "voxel_local_edge_length" : 0.006666666828095913,
                    "voxel_qef" : 0,
                    "voxel_sub_level" : -1,
                    "wireframe_visible" : -1
                }
            },
            "name" : "\u5e95.001",
            "primitives" : [
                {
                    "attributes" : {
                        "POSITION" : 0,
                        "NORMAL" : 1
                    },
                    "indices" : 2,
                    "material" : 0
                }
            ]
        }
    ],
    "accessors" : [
        {
            "bufferView" : 0,
            "componentType" : 5126,
            "count" : 23324,
            "max" : [
                4.462414264678955,
                0.7367061376571655,
                4.461027145385742
            ],
            "min" : [
                -4.462414264678955,
                -0.7367061376571655,
                -4.4610276222229
            ],
            "type" : "VEC3"
        },
        {
            "bufferView" : 1,
            "componentType" : 5126,
            "count" : 23324,
            "type" : "VEC3"
        },
        {
            "bufferView" : 2,
            "componentType" : 5123,
            "count" : 29484,
            "type" : "SCALAR"
        }
    ],
    "bufferViews" : [
        {
            "buffer" : 0,
            "byteLength" : 279888,
            "byteOffset" : 0
        },
        {
            "buffer" : 0,
            "byteLength" : 279888,
            "byteOffset" : 279888
        },
        {
            "buffer" : 0,
            "byteLength" : 58968,
            "byteOffset" : 559776
        }
    ],
    "buffers" : [
        {
            "byteLength" : 618744,
            "uri" : "data:application/octet-stream;base64,"
        }
    ]
}
