{
    "asset" : {
        "generator" : "Khronos glTF Blender I/O v3.2.43",
        "version" : "2.0"
    },
    "scene" : 0,
    "scenes" : [
        {
            "extras" : {
                "s_output" : "exporting...",
                "b_export" : 1,
                "export_path" : "E:\\Art101\\AFrame\\",
                "b_interactive" : 0,
                "b_renderer" : 1,
                "b_settings" : 1,
                "b_player" : 1,
                "b_bake_lightmap" : 1,
                "b_use_lightmapper" : 0,
                "b_show_env_sky" : 0,
                "f_raycast_length" : 1.0,
                "b_cast_shadows" : 0,
                "s_cubemap_ext" : "jpg",
                "b_colorManagement" : 0,
                "b_physicallyCorrectLights" : 0,
                "b_aa" : 0,
                "f_player_height" : 0.10000000149011612,
                "b_raycast" : 1,
                "b_camera_cube" : 1
            },
            "name" : "Scene",
            "nodes" : [
                0
            ]
        }
    ],
    "nodes" : [
        {
            "mesh" : 0,
            "name" : "Circle.001",
            "rotation" : [
                0,
                -0.7071068286895752,
                0.7071068286895752,
                1.1520233300643667e-07
            ]
        }
    ],
    "materials" : [
        {
            "doubleSided" : true,
            "name" : "Material.002",
            "pbrMetallicRoughness" : {
                "baseColorFactor" : [
                    0,
                    0,
                    0,
                    1
                ],
                "metallicFactor" : 0,
                "roughnessFactor" : 0.5
            }
        }
    ],
    "meshes" : [
        {
            "name" : "Circle.003",
            "primitives" : [
                {
                    "attributes" : {
                        "POSITION" : 0,
                        "NORMAL" : 1,
                        "TEXCOORD_0" : 2
                    },
                    "indices" : 3,
                    "material" : 0
                }
            ]
        }
    ],
    "accessors" : [
        {
            "bufferView" : 0,
            "componentType" : 5126,
            "count" : 390,
            "max" : [
                0.9981241226196289,
                2.571540355682373,
                1.1102187633514404
            ],
            "min" : [
                -1.001875877380371,
                -1.2435051202774048,
                -0.8897814750671387
            ],
            "type" : "VEC3"
        },
        {
            "bufferView" : 1,
            "componentType" : 5126,
            "count" : 390,
            "type" : "VEC3"
        },
        {
            "bufferView" : 2,
            "componentType" : 5126,
            "count" : 390,
            "type" : "VEC2"
        },
        {
            "bufferView" : 3,
            "componentType" : 5123,
            "count" : 1788,
            "type" : "SCALAR"
        }
    ],
    "bufferViews" : [
        {
            "buffer" : 0,
            "byteLength" : 4680,
            "byteOffset" : 0
        },
        {
            "buffer" : 0,
            "byteLength" : 4680,
            "byteOffset" : 4680
        },
        {
            "buffer" : 0,
            "byteLength" : 3120,
            "byteOffset" : 9360
        },
        {
            "buffer" : 0,
            "byteLength" : 3576,
            "byteOffset" : 12480
        }
    ],
    "buffers" : [
        {
            "byteLength" : 16056,
            "uri" : "data:application/octet-stream;base64,"
        }
    ]
}
