{
    "asset" : {
        "generator" : "Khronos glTF Blender I/O v3.2.43",
        "version" : "2.0"
    },
    "scene" : 0,
    "scenes" : [
        {
            "extras" : {
                "s_output" : "exporting...",
                "b_export" : 1,
                "export_path" : "E:\\Art101\\AFrame\\",
                "b_interactive" : 0,
                "b_renderer" : 1,
                "b_settings" : 1,
                "b_player" : 1,
                "b_bake_lightmap" : 1,
                "b_use_lightmapper" : 0,
                "b_show_env_sky" : 0,
                "f_raycast_length" : 1.0,
                "b_cast_shadows" : 0,
                "s_cubemap_ext" : "jpg",
                "b_colorManagement" : 0,
                "b_physicallyCorrectLights" : 0,
                "b_aa" : 0,
                "f_player_height" : 0.10000000149011612,
                "b_raycast" : 1,
                "b_camera_cube" : 1
            },
            "name" : "Scene",
            "nodes" : [
                0
            ]
        }
    ],
    "nodes" : [
        {
            "mesh" : 0,
            "name" : "Cube.016",
            "rotation" : [
                0,
                0.9501579999923706,
                0,
                0.31176885962486267
            ],
            "scale" : [
                0.8286011219024658,
                0.00993286445736885,
                0.6461819410324097
            ]
        }
    ],
    "materials" : [
        {
            "doubleSided" : true,
            "name" : "Rocks",
            "pbrMetallicRoughness" : {
                "baseColorFactor" : [
                    0.4769931435585022,
                    0.4769931435585022,
                    0.4769931435585022,
                    1
                ],
                "metallicFactor" : 0,
                "roughnessFactor" : 0.5
            }
        }
    ],
    "meshes" : [
        {
            "name" : "Cube.016",
            "primitives" : [
                {
                    "attributes" : {
                        "POSITION" : 0,
                        "NORMAL" : 1,
                        "TANGENT" : 2,
                        "TEXCOORD_0" : 3
                    },
                    "indices" : 4,
                    "material" : 0
                }
            ]
        }
    ],
    "accessors" : [
        {
            "bufferView" : 0,
            "componentType" : 5126,
            "count" : 112,
            "max" : [
                0.8803802132606506,
                1.4947856664657593,
                0.8332751393318176
            ],
            "min" : [
                -0.962677001953125,
                -1.7843929529190063,
                -1.0748612880706787
            ],
            "type" : "VEC3"
        },
        {
            "bufferView" : 1,
            "componentType" : 5126,
            "count" : 112,
            "type" : "VEC3"
        },
        {
            "bufferView" : 2,
            "componentType" : 5126,
            "count" : 112,
            "type" : "VEC4"
        },
        {
            "bufferView" : 3,
            "componentType" : 5126,
            "count" : 112,
            "type" : "VEC2"
        },
        {
            "bufferView" : 4,
            "componentType" : 5123,
            "count" : 180,
            "type" : "SCALAR"
        }
    ],
    "bufferViews" : [
        {
            "buffer" : 0,
            "byteLength" : 1344,
            "byteOffset" : 0
        },
        {
            "buffer" : 0,
            "byteLength" : 1344,
            "byteOffset" : 1344
        },
        {
            "buffer" : 0,
            "byteLength" : 1792,
            "byteOffset" : 2688
        },
        {
            "buffer" : 0,
            "byteLength" : 896,
            "byteOffset" : 4480
        },
        {
            "buffer" : 0,
            "byteLength" : 360,
            "byteOffset" : 5376
        }
    ],
    "buffers" : [
        {
            "byteLength" : 5736,
            "uri" : "data:application/octet-stream;base64,"
        }
    ]
}
