# Blender 3.3.1
# www.blender.org
mtllib toybox.mtl
o Box
v 3.482838 9.276628 -2.339421
v 3.482838 9.276628 -2.614844
v 3.482838 3.161584 -2.339422
v 3.482838 3.161584 -2.614845
v -4.173988 9.276628 -2.614844
v -4.173988 9.276628 -2.339421
v -4.173988 3.161584 -2.614845
v -4.173988 3.161584 -2.339422
v -4.173988 9.276628 -2.614844
v 3.482838 9.276628 -2.614844
v -4.173988 9.276628 -2.339421
v 3.482838 9.276628 -2.339421
v -4.173988 3.161584 -2.339422
v 3.482838 3.161584 -2.339422
v -4.173988 3.161584 -2.614845
v 3.482838 3.161584 -2.614845
v -4.173988 9.276628 -2.339421
v 3.482838 9.276628 -2.339421
v -4.173988 3.161584 -2.339422
v 3.482838 3.161584 -2.339422
v 3.482838 9.276628 -2.614844
v -4.173988 9.276628 -2.614844
v 3.482838 3.161584 -2.614845
v -4.173988 3.161584 -2.614845
vn 1.0000 -0.0000 -0.0000
vn -1.0000 -0.0000 -0.0000
vn -0.0000 1.0000 -0.0000
vn -0.0000 -1.0000 -0.0000
vn -0.0000 -0.0000 1.0000
vn -0.0000 -0.0000 -1.0000
vt 0.000000 1.000000
vt 1.000000 1.000000
vt 0.000000 0.000000
vt 1.000000 0.000000
vt 0.000000 1.000000
vt 1.000000 1.000000
vt 0.000000 0.000000
vt 1.000000 0.000000
vt 0.000000 1.000000
vt 1.000000 1.000000
vt 0.000000 0.000000
vt 1.000000 0.000000
vt 0.000000 1.000000
vt 1.000000 1.000000
vt 0.000000 0.000000
vt 1.000000 0.000000
vt 0.000000 1.000000
vt 1.000000 1.000000
vt 0.000000 0.000000
vt 1.000000 0.000000
vt 0.000000 1.000000
vt 1.000000 1.000000
vt 0.000000 0.000000
vt 1.000000 0.000000
s 0
f 1/1/1 3/3/1 2/2/1
f 3/3/1 4/4/1 2/2/1
f 5/5/2 7/7/2 6/6/2
f 7/7/2 8/8/2 6/6/2
f 9/9/3 11/11/3 10/10/3
f 11/11/3 12/12/3 10/10/3
f 13/13/4 15/15/4 14/14/4
f 15/15/4 16/16/4 14/14/4
f 17/17/5 19/19/5 18/18/5
f 19/19/5 20/20/5 18/18/5
f 21/21/6 23/23/6 22/22/6
f 23/23/6 24/24/6 22/22/6
o Box.001
v 3.469267 9.269787 5.897328
v 3.469267 9.269787 5.621906
v 3.469267 3.154743 5.897327
v 3.469267 3.154743 5.621905
v -4.187559 9.269787 5.621906
v -4.187559 9.269787 5.897328
v -4.187559 3.154743 5.621905
v -4.187559 3.154743 5.897327
v -4.187559 9.269787 5.621906
v 3.469267 9.269787 5.621906
v -4.187559 9.269787 5.897328
v 3.469267 9.269787 5.897328
v -4.187559 3.154743 5.897327
v 3.469267 3.154743 5.897327
v -4.187559 3.154743 5.621905
v 3.469267 3.154743 5.621905
v -4.187559 9.269787 5.897328
v 3.469267 9.269787 5.897328
v -4.187559 3.154743 5.897327
v 3.469267 3.154743 5.897327
v 3.469267 9.269787 5.621906
v -4.187559 9.269787 5.621906
v 3.469267 3.154743 5.621905
v -4.187559 3.154743 5.621905
vn 1.0000 -0.0000 -0.0000
vn -1.0000 -0.0000 -0.0000
vn -0.0000 1.0000 -0.0000
vn -0.0000 -1.0000 -0.0000
vn -0.0000 -0.0000 1.0000
vn -0.0000 -0.0000 -1.0000
vt 0.000000 1.000000
vt 1.000000 1.000000
vt 0.000000 0.000000
vt 1.000000 0.000000
vt 0.000000 1.000000
vt 1.000000 1.000000
vt 0.000000 0.000000
vt 1.000000 0.000000
vt 0.000000 1.000000
vt 1.000000 1.000000
vt 0.000000 0.000000
vt 1.000000 0.000000
vt 0.000000 1.000000
vt 1.000000 1.000000
vt 0.000000 0.000000
vt 1.000000 0.000000
vt 0.000000 1.000000
vt 1.000000 1.000000
vt 0.000000 0.000000
vt 1.000000 0.000000
vt 0.000000 1.000000
vt 1.000000 1.000000
vt 0.000000 0.000000
vt 1.000000 0.000000
s 0
f 25/25/7 27/27/7 26/26/7
f 27/27/7 28/28/7 26/26/7
f 29/29/8 31/31/8 30/30/8
f 31/31/8 32/32/8 30/30/8
f 33/33/9 35/35/9 34/34/9
f 35/35/9 36/36/9 34/34/9
f 37/37/10 39/39/10 38/38/10
f 39/39/10 40/40/10 38/38/10
f 41/41/11 43/43/11 42/42/11
f 43/43/11 44/44/11 42/42/11
f 45/45/12 47/47/12 46/46/12
f 47/47/12 48/48/12 46/46/12
o Box.002
v 3.461750 2.883367 5.900140
v 3.461750 3.158789 5.900207
v 3.461750 2.885431 -2.614364
v 3.461750 3.160853 -2.614297
v -4.195076 3.158789 5.900207
v -4.195076 2.883367 5.900140
v -4.195076 3.160853 -2.614297
v -4.195076 2.885431 -2.614364
v -4.195076 3.158789 5.900207
v 3.461750 3.158789 5.900207
v -4.195076 2.883367 5.900140
v 3.461750 2.883367 5.900140
v -4.195076 2.885431 -2.614364
v 3.461750 2.885431 -2.614364
v -4.195076 3.160853 -2.614297
v 3.461750 3.160853 -2.614297
v -4.195076 2.883367 5.900140
v 3.461750 2.883367 5.900140
v -4.195076 2.885431 -2.614364
v 3.461750 2.885431 -2.614364
v 3.461750 3.158789 5.900207
v -4.195076 3.158789 5.900207
v 3.461750 3.160853 -2.614297
v -4.195076 3.160853 -2.614297
vn 1.0000 -0.0000 -0.0000
vn -1.0000 -0.0000 -0.0000
vn -0.0000 -0.0002 1.0000
vn -0.0000 0.0002 -1.0000
vn -0.0000 -1.0000 -0.0002
vn -0.0000 1.0000 0.0002
vt 0.000000 1.000000
vt 1.000000 1.000000
vt 0.000000 0.000000
vt 1.000000 0.000000
vt 0.000000 1.000000
vt 1.000000 1.000000
vt 0.000000 0.000000
vt 1.000000 0.000000
vt 0.000000 1.000000
vt 1.000000 1.000000
vt 0.000000 0.000000
vt 1.000000 0.000000
vt 0.000000 1.000000
vt 1.000000 1.000000
vt 0.000000 0.000000
vt 1.000000 0.000000
vt 0.000000 1.000000
vt 1.000000 1.000000
vt 0.000000 0.000000
vt 1.000000 0.000000
vt 0.000000 1.000000
vt 1.000000 1.000000
vt 0.000000 0.000000
vt 1.000000 0.000000
s 0
f 49/49/13 51/51/13 50/50/13
f 51/51/13 52/52/13 50/50/13
f 53/53/14 55/55/14 54/54/14
f 55/55/14 56/56/14 54/54/14
f 57/57/15 59/59/15 58/58/15
f 59/59/15 60/60/15 58/58/15
f 61/61/16 63/63/16 62/62/16
f 63/63/16 64/64/16 62/62/16
f 65/65/17 67/67/17 66/66/17
f 67/67/17 68/68/17 66/66/17
f 69/69/18 71/71/18 70/70/18
f 71/71/18 72/72/18 70/70/18
o Box.003
v 3.452926 9.266042 -2.617750
v 3.177504 9.266042 -2.617310
v 3.452926 3.150998 -2.617751
v 3.177504 3.150998 -2.617311
v 3.191144 9.266041 5.915120
v 3.466566 9.266041 5.914680
v 3.191144 3.150997 5.915119
v 3.466566 3.150997 5.914679
v 3.191144 9.266041 5.915120
v 3.177504 9.266042 -2.617310
v 3.466566 9.266041 5.914680
v 3.452926 9.266042 -2.617750
v 3.466566 3.150997 5.914679
v 3.452926 3.150998 -2.617751
v 3.191144 3.150997 5.915119
v 3.177504 3.150998 -2.617311
v 3.466566 9.266041 5.914680
v 3.452926 9.266042 -2.617750
v 3.466566 3.150997 5.914679
v 3.452926 3.150998 -2.617751
v 3.177504 9.266042 -2.617310
v 3.191144 9.266041 5.915120
v 3.177504 3.150998 -2.617311
v 3.191144 3.150997 5.915119
vn -0.0016 -0.0000 -1.0000
vn 0.0016 -0.0000 1.0000
vn -0.0000 1.0000 -0.0000
vn -0.0000 -1.0000 -0.0000
vn 1.0000 -0.0000 -0.0016
vn -1.0000 -0.0000 0.0016
vt 0.000000 1.000000
vt 1.000000 1.000000
vt 0.000000 0.000000
vt 1.000000 0.000000
vt 0.000000 1.000000
vt 1.000000 1.000000
vt 0.000000 0.000000
vt 1.000000 0.000000
vt 0.000000 1.000000
vt 1.000000 1.000000
vt 0.000000 0.000000
vt 1.000000 0.000000
vt 0.000000 1.000000
vt 1.000000 1.000000
vt 0.000000 0.000000
vt 1.000000 0.000000
vt 0.000000 1.000000
vt 1.000000 1.000000
vt 0.000000 0.000000
vt 1.000000 0.000000
vt 0.000000 1.000000
vt 1.000000 1.000000
vt 0.000000 0.000000
vt 1.000000 0.000000
s 0
f 73/73/19 75/75/19 74/74/19
f 75/75/19 76/76/19 74/74/19
f 77/77/20 79/79/20 78/78/20
f 79/79/20 80/80/20 78/78/20
f 81/81/21 83/83/21 82/82/21
f 83/83/21 84/84/21 82/82/21
f 85/85/22 87/87/22 86/86/22
f 87/87/22 88/88/22 86/86/22
f 89/89/23 91/91/23 90/90/23
f 91/91/23 92/92/23 90/90/23
f 93/93/24 95/95/24 94/94/24
f 95/95/24 96/96/24 94/94/24
o Box.004
v -3.932064 9.266042 -2.617750
v -4.207487 9.266042 -2.617310
v -3.932064 3.150998 -2.617751
v -4.207487 3.150998 -2.617311
v -4.193847 9.266041 5.915120
v -3.918425 9.266041 5.914680
v -4.193847 3.150997 5.915119
v -3.918425 3.150997 5.914679
v -4.193847 9.266041 5.915120
v -4.207487 9.266042 -2.617310
v -3.918425 9.266041 5.914680
v -3.932064 9.266042 -2.617750
v -3.918425 3.150997 5.914679
v -3.932064 3.150998 -2.617751
v -4.193847 3.150997 5.915119
v -4.207487 3.150998 -2.617311
v -3.918425 9.266041 5.914680
v -3.932064 9.266042 -2.617750
v -3.918425 3.150997 5.914679
v -3.932064 3.150998 -2.617751
v -4.207487 9.266042 -2.617310
v -4.193847 9.266041 5.915120
v -4.207487 3.150998 -2.617311
v -4.193847 3.150997 5.915119
vn -0.0016 -0.0000 -1.0000
vn 0.0016 -0.0000 1.0000
vn -0.0000 1.0000 -0.0000
vn -0.0000 -1.0000 -0.0000
vn 1.0000 -0.0000 -0.0016
vn -1.0000 -0.0000 0.0016
vt 0.000000 1.000000
vt 1.000000 1.000000
vt 0.000000 0.000000
vt 1.000000 0.000000
vt 0.000000 1.000000
vt 1.000000 1.000000
vt 0.000000 0.000000
vt 1.000000 0.000000
vt 0.000000 1.000000
vt 1.000000 1.000000
vt 0.000000 0.000000
vt 1.000000 0.000000
vt 0.000000 1.000000
vt 1.000000 1.000000
vt 0.000000 0.000000
vt 1.000000 0.000000
vt 0.000000 1.000000
vt 1.000000 1.000000
vt 0.000000 0.000000
vt 1.000000 0.000000
vt 0.000000 1.000000
vt 1.000000 1.000000
vt 0.000000 0.000000
vt 1.000000 0.000000
s 0
f 97/97/25 99/99/25 98/98/25
f 99/99/25 100/100/25 98/98/25
f 101/101/26 103/103/26 102/102/26
f 103/103/26 104/104/26 102/102/26
f 105/105/27 107/107/27 106/106/27
f 107/107/27 108/108/27 106/106/27
f 109/109/28 111/111/28 110/110/28
f 111/111/28 112/112/28 110/110/28
f 113/113/29 115/115/29 114/114/29
f 115/115/29 116/116/29 114/114/29
f 117/117/30 119/119/30 118/118/30
f 119/119/30 120/120/30 118/118/30
o Cube
v -4.234922 14.716617 4.305436
v -4.234922 14.399530 4.539645
v -4.234922 9.607666 -2.611375
v -4.234922 9.290580 -2.377166
v 3.467089 14.716617 4.305436
v 3.467089 14.399530 4.539645
v 3.467089 9.607666 -2.611375
v 3.467089 9.290580 -2.377166
vn -1.0000 -0.0000 -0.0000
vn -0.0000 -0.5941 -0.8044
vn 1.0000 -0.0000 -0.0000
vn -0.0000 0.5941 0.8044
vn -0.0000 0.8044 -0.5941
vn -0.0000 -0.8044 0.5941
vt 0.375000 0.000000
vt 0.375000 1.000000
vt 0.125000 0.750000
vt 0.625000 0.000000
vt 0.625000 1.000000
vt 0.875000 0.750000
vt 0.375000 0.250000
vt 0.125000 0.500000
vt 0.625000 0.250000
vt 0.875000 0.500000
vt 0.375000 0.750000
vt 0.625000 0.750000
vt 0.375000 0.500000
vt 0.625000 0.500000
s 0
f 121/121/31 123/127/31 124/129/31 122/124/31
f 123/127/32 127/133/32 128/134/32 124/129/32
f 127/133/33 125/131/33 126/132/33 128/134/33
f 125/131/34 121/122/34 122/125/34 126/132/34
f 123/128/35 121/123/35 125/131/35 127/133/35
f 128/134/36 126/132/36 122/126/36 124/130/36
o Cube.001
v 3.748782 8.474808 2.792744
v 3.748782 8.793530 2.792744
v 3.748782 8.474808 0.852961
v 3.748782 8.793530 0.852961
v 4.113843 8.474808 2.792744
v 4.113843 8.793530 2.792744
v 4.113843 8.474808 0.852961
v 4.113843 8.793530 0.852961
vn -1.0000 -0.0000 -0.0000
vn -0.0000 -0.0000 -1.0000
vn 1.0000 -0.0000 -0.0000
vn -0.0000 -0.0000 1.0000
vn -0.0000 -1.0000 -0.0000
vn -0.0000 1.0000 -0.0000
vt 0.375000 0.000000
vt 0.375000 1.000000
vt 0.125000 0.750000
vt 0.625000 0.000000
vt 0.625000 1.000000
vt 0.875000 0.750000
vt 0.375000 0.250000
vt 0.125000 0.500000
vt 0.625000 0.250000
vt 0.875000 0.500000
vt 0.375000 0.750000
vt 0.625000 0.750000
vt 0.375000 0.500000
vt 0.625000 0.500000
s 0
f 129/135/37 130/138/37 132/143/37 131/141/37
f 131/141/38 132/143/38 136/148/38 135/147/38
f 135/147/39 136/148/39 134/146/39 133/145/39
f 133/145/40 134/146/40 130/139/40 129/136/40
f 131/142/41 135/147/41 133/145/41 129/137/41
f 136/148/42 132/144/42 130/140/42 134/146/42
o Cube.002
v -4.206588 8.463264 0.888303
v -4.206313 8.460196 1.207010
v -4.948575 8.466948 0.888978
v -4.948299 8.463878 1.207686
v -4.204782 8.826461 0.891799
v -4.204507 8.823391 1.210506
v -4.946769 8.830143 0.892474
v -4.946494 8.827074 1.211182
vn -0.0050 -0.9999 -0.0096
vn -1.0000 0.0050 0.0009
vn 0.0050 0.9999 0.0096
vn 1.0000 -0.0050 -0.0009
vn -0.0009 0.0096 -1.0000
vn 0.0009 -0.0096 1.0000
vt 0.375000 0.000000
vt 0.375000 1.000000
vt 0.125000 0.750000
vt 0.625000 0.000000
vt 0.625000 1.000000
vt 0.875000 0.750000
vt 0.375000 0.250000
vt 0.125000 0.500000
vt 0.625000 0.250000
vt 0.875000 0.500000
vt 0.375000 0.750000
vt 0.625000 0.750000
vt 0.375000 0.500000
vt 0.625000 0.500000
s 0
f 137/149/43 138/152/43 140/157/43 139/155/43
f 139/155/44 140/157/44 144/162/44 143/161/44
f 143/161/45 144/162/45 142/160/45 141/159/45
f 141/159/46 142/160/46 138/153/46 137/150/46
f 139/156/47 143/161/47 141/159/47 137/151/47
f 144/162/48 140/158/48 138/154/48 142/160/48
o Cube.003
v -4.933170 8.452125 2.788744
v -4.933170 8.770760 2.796212
v -4.933170 8.497578 0.849493
v -4.933170 8.816213 0.856961
v -4.568109 8.452125 2.788744
v -4.568109 8.770760 2.796212
v -4.568109 8.497578 0.849493
v -4.568109 8.816213 0.856961
vn -1.0000 -0.0000 -0.0000
vn -0.0000 0.0234 -0.9997
vn 1.0000 -0.0000 -0.0000
vn -0.0000 -0.0234 0.9997
vn -0.0000 -0.9997 -0.0234
vn -0.0000 0.9997 0.0234
vt 0.375000 0.000000
vt 0.375000 1.000000
vt 0.125000 0.750000
vt 0.625000 0.000000
vt 0.625000 1.000000
vt 0.875000 0.750000
vt 0.375000 0.250000
vt 0.125000 0.500000
vt 0.625000 0.250000
vt 0.875000 0.500000
vt 0.375000 0.750000
vt 0.625000 0.750000
vt 0.375000 0.500000
vt 0.625000 0.500000
s 0
f 145/163/49 146/166/49 148/171/49 147/169/49
f 147/169/50 148/171/50 152/176/50 151/175/50
f 151/175/51 152/176/51 150/174/51 149/173/51
f 149/173/52 150/174/52 146/167/52 145/164/52
f 147/170/53 151/175/53 149/173/53 145/165/53
f 152/176/54 148/172/54 146/168/54 150/174/54
o Cube.004
v -4.207311 8.786726 2.408383
v -4.215370 8.468133 2.404257
v -4.948728 8.805185 2.431135
v -4.956787 8.486591 2.427008
v -4.196295 8.781746 2.771399
v -4.204354 8.463152 2.767272
v -4.937712 8.800204 2.794151
v -4.945771 8.481611 2.790024
vn -0.0303 0.0137 -0.9994
vn -0.9992 0.0249 0.0307
vn 0.0303 -0.0137 0.9994
vn 0.9992 -0.0249 -0.0307
vn 0.0253 0.9996 0.0129
vn -0.0253 -0.9996 -0.0129
vt 0.375000 0.000000
vt 0.375000 1.000000
vt 0.125000 0.750000
vt 0.625000 0.000000
vt 0.625000 1.000000
vt 0.875000 0.750000
vt 0.375000 0.250000
vt 0.125000 0.500000
vt 0.625000 0.250000
vt 0.875000 0.500000
vt 0.375000 0.750000
vt 0.625000 0.750000
vt 0.375000 0.500000
vt 0.625000 0.500000
s 0
f 153/177/55 154/180/55 156/185/55 155/183/55
f 155/183/56 156/185/56 160/190/56 159/189/56
f 159/189/57 160/190/57 158/188/57 157/187/57
f 157/187/58 158/188/58 154/181/58 153/178/58
f 155/184/59 159/189/59 157/187/59 153/179/59
f 160/190/60 156/186/60 154/182/60 158/188/60
o Cube.005
v 4.153642 8.786726 2.408383
v 4.145584 8.468133 2.404257
v 3.412225 8.805185 2.431135
v 3.404166 8.486591 2.427008
v 4.164658 8.781746 2.771399
v 4.156599 8.463152 2.767272
v 3.423241 8.800204 2.794151
v 3.415182 8.481611 2.790024
vn -0.0303 0.0137 -0.9994
vn -0.9992 0.0249 0.0307
vn 0.0303 -0.0137 0.9994
vn 0.9992 -0.0249 -0.0307
vn 0.0253 0.9996 0.0129
vn -0.0253 -0.9996 -0.0129
vt 0.375000 0.000000
vt 0.375000 1.000000
vt 0.125000 0.750000
vt 0.625000 0.000000
vt 0.625000 1.000000
vt 0.875000 0.750000
vt 0.375000 0.250000
vt 0.125000 0.500000
vt 0.625000 0.250000
vt 0.875000 0.500000
vt 0.375000 0.750000
vt 0.625000 0.750000
vt 0.375000 0.500000
vt 0.625000 0.500000
s 0
f 161/191/61 162/194/61 164/199/61 163/197/61
f 163/197/62 164/199/62 168/204/62 167/203/62
f 167/203/63 168/204/63 166/202/63 165/201/63
f 165/201/64 166/202/64 162/195/64 161/192/64
f 163/198/65 167/203/65 165/201/65 161/193/65
f 168/204/66 164/200/66 162/196/66 166/202/66
o Cube.006
v 4.161278 8.463264 0.888303
v 4.161552 8.460196 1.207010
v 3.419291 8.466948 0.888978
v 3.419566 8.463878 1.207686
v 4.163084 8.826461 0.891799
v 4.163358 8.823391 1.210506
v 3.421097 8.830143 0.892474
v 3.421372 8.827074 1.211182
vn -0.0050 -0.9999 -0.0096
vn -1.0000 0.0050 0.0009
vn 0.0050 0.9999 0.0096
vn 1.0000 -0.0050 -0.0009
vn -0.0009 0.0096 -1.0000
vn 0.0009 -0.0096 1.0000
vt 0.375000 0.000000
vt 0.375000 1.000000
vt 0.125000 0.750000
vt 0.625000 0.000000
vt 0.625000 1.000000
vt 0.875000 0.750000
vt 0.375000 0.250000
vt 0.125000 0.500000
vt 0.625000 0.250000
vt 0.875000 0.500000
vt 0.375000 0.750000
vt 0.625000 0.750000
vt 0.375000 0.500000
vt 0.625000 0.500000
s 0
f 169/205/67 170/208/67 172/213/67 171/211/67
f 171/211/68 172/213/68 176/218/68 175/217/68
f 175/217/69 176/218/69 174/216/69 173/215/69
f 173/215/70 174/216/70 170/209/70 169/206/70
f 171/212/71 175/217/71 173/215/71 169/207/71
f 176/218/72 172/214/72 170/210/72 174/216/72
o Cube.007
v -4.234922 14.184673 4.849559
v -4.234922 14.113526 4.755018
v -4.234922 14.787219 4.396117
v -4.234922 14.716072 4.301575
v 3.467089 14.184673 4.849559
v 3.467089 14.113526 4.755018
v 3.467089 14.787219 4.396117
v 3.467089 14.716072 4.301575
vn -1.0000 -0.0000 -0.0000
vn -0.0000 0.7990 -0.6013
vn 1.0000 -0.0000 -0.0000
vn -0.0000 -0.7990 0.6013
vn -0.0000 0.6013 0.7990
vn -0.0000 -0.6013 -0.7990
vt 0.375000 0.000000
vt 0.375000 1.000000
vt 0.125000 0.750000
vt 0.625000 0.000000
vt 0.625000 1.000000
vt 0.875000 0.750000
vt 0.375000 0.250000
vt 0.125000 0.500000
vt 0.625000 0.250000
vt 0.875000 0.500000
vt 0.375000 0.750000
vt 0.625000 0.750000
vt 0.375000 0.500000
vt 0.625000 0.500000
s 0
f 177/219/73 179/225/73 180/227/73 178/222/73
f 179/225/74 183/231/74 184/232/74 180/227/74
f 183/231/75 181/229/75 182/230/75 184/232/75
f 181/229/76 177/220/76 178/223/76 182/230/76
f 179/226/77 177/221/77 181/229/77 183/231/77
f 184/232/78 182/230/78 178/224/78 180/228/78
o Cube.008
v 0.315472 14.184673 5.065842
v 0.315472 14.113526 4.971301
v 0.315472 14.787219 4.612400
v 0.315472 14.716072 4.517858
v -1.083304 14.184673 5.065842
v -1.083304 14.113526 4.971301
v -1.083304 14.787219 4.612400
v -1.083304 14.716072 4.517858
vn 1.0000 -0.0000 -0.0000
vn -0.0000 0.7990 -0.6013
vn -1.0000 -0.0000 -0.0000
vn -0.0000 -0.7990 0.6013
vn -0.0000 0.6013 0.7990
vn -0.0000 -0.6013 -0.7990
vt 0.375000 0.000000
vt 0.375000 1.000000
vt 0.125000 0.750000
vt 0.625000 0.000000
vt 0.625000 1.000000
vt 0.875000 0.750000
vt 0.375000 0.250000
vt 0.125000 0.500000
vt 0.625000 0.250000
vt 0.875000 0.500000
vt 0.375000 0.750000
vt 0.625000 0.750000
vt 0.375000 0.500000
vt 0.625000 0.500000
s 0
f 185/233/79 186/236/79 188/241/79 187/239/79
f 187/239/80 188/241/80 192/246/80 191/245/80
f 191/245/81 192/246/81 190/244/81 189/243/81
f 189/243/82 190/244/82 186/237/82 185/234/82
f 187/240/83 191/245/83 189/243/83 185/235/83
f 192/246/84 188/242/84 186/238/84 190/244/84
o Cube.009
v 0.253467 8.978006 6.026655
v 0.253467 8.981205 5.908413
v 0.253467 9.265186 6.034424
v 0.253467 9.268385 5.916182
v -1.145308 8.978006 6.026655
v -1.145308 8.981205 5.908413
v -1.145308 9.265186 6.034424
v -1.145308 9.268385 5.916182
vn 1.0000 -0.0000 -0.0000
vn -0.0000 0.9996 0.0270
vn -1.0000 -0.0000 -0.0000
vn -0.0000 -0.9996 -0.0270
vn -0.0000 -0.0270 0.9996
vn -0.0000 0.0270 -0.9996
vt 0.375000 0.000000
vt 0.375000 1.000000
vt 0.125000 0.750000
vt 0.625000 0.000000
vt 0.625000 1.000000
vt 0.875000 0.750000
vt 0.375000 0.250000
vt 0.125000 0.500000
vt 0.625000 0.250000
vt 0.875000 0.500000
vt 0.375000 0.750000
vt 0.625000 0.750000
vt 0.375000 0.500000
vt 0.625000 0.500000
s 0
f 193/247/85 194/250/85 196/255/85 195/253/85
f 195/253/86 196/255/86 200/260/86 199/259/86
f 199/259/87 200/260/87 198/258/87 197/257/87
f 197/257/88 198/258/88 194/251/88 193/248/88
f 195/254/89 199/259/89 197/257/89 193/249/89
f 200/260/90 196/256/90 194/252/90 198/258/90
